<svg xmlns="http://www.w3.org/2000/svg" xmlns:xlink="http://www.w3.org/1999/xlink" width="3754" height="731" version="1.1" viewBox="0 0 3754 731"><title>logo_full_white</title><desc>Created with Sketch.</desc><g id="Page-1" fill="none" fill-rule="evenodd" stroke="none" stroke-width="1"><g id="logo_full_white" fill="#FFF"><path id="Combined-Shape" fill-rule="nonzero" d="M429.195587,542.608826 C501.452823,538.568353 561.766409,527.834363 567.798746,511 C583.175072,468.089492 442.525377,108 366.298746,108 C290.072115,108 145.233783,464.815031 164.798746,511 C172.353314,528.833281 231.866332,539.292441 302.971502,542.943005 L366,669 L429.195587,542.608826 Z M365.5,731 C163.639924,731 0,567.360076 0,365.5 C0,163.639924 163.639924,0 365.5,0 C567.360076,0 731,163.639924 731,365.5 C731,567.360076 567.360076,731 365.5,731 Z"/><circle id="Oval-2" cx="366" cy="245" r="41" fill-rule="nonzero"/><path id="BitLaunch" d="M1009.3125,176.234375 L1133.72656,176.234375 C1190.41955,176.234375 1231.57149,184.300701 1257.18359,200.433594 C1282.7957,216.566487 1295.60156,242.223782 1295.60156,277.40625 C1295.60156,301.286578 1289.99615,320.882736 1278.78516,336.195312 C1267.57416,351.507889 1252.67197,360.713526 1234.07812,363.8125 L1234.07812,366.546875 C1259.41679,372.197945 1277.69135,382.770756 1288.90234,398.265625 C1300.11334,413.760494 1305.71875,434.359246 1305.71875,460.0625 C1305.71875,496.521016 1292.54831,524.958231 1266.20703,545.375 C1239.86575,565.791769 1204.09137,576 1158.88281,576 L1009.3125,576 L1009.3125,176.234375 Z M1094.07812,334.554688 L1143.29688,334.554688 C1166.26574,334.554688 1182.89969,331.000036 1193.19922,323.890625 C1203.49875,316.781214 1208.64844,305.02352 1208.64844,288.617188 C1208.64844,273.304611 1203.04302,262.321648 1191.83203,255.667969 C1180.62104,249.01429 1162.89335,245.6875 1138.64844,245.6875 L1094.07812,245.6875 L1094.07812,334.554688 Z M1094.07812,401.820312 L1094.07812,506 L1149.3125,506 C1172.64595,506 1189.87234,501.533899 1200.99219,492.601562 C1212.11203,483.669226 1217.67188,469.997488 1217.67188,451.585938 C1217.67188,418.408688 1193.9742,401.820312 1146.57812,401.820312 L1094.07812,401.820312 Z M1375.44531,191.273438 C1375.44531,164.111843 1390.57537,150.53125 1420.83594,150.53125 C1451.09651,150.53125 1466.22656,164.111843 1466.22656,191.273438 C1466.22656,204.216211 1462.44405,214.287724 1454.87891,221.488281 C1447.31376,228.688838 1435.96622,232.289062 1420.83594,232.289062 C1390.57537,232.289062 1375.44531,218.617324 1375.44531,191.273438 Z M1462.39844,576 L1379,576 L1379,270.296875 L1462.39844,270.296875 L1462.39844,576 Z M1678.6875,515.023438 C1693.27091,515.023438 1710.77073,511.833365 1731.1875,505.453125 L1731.1875,567.523438 C1710.40615,576.820359 1684.88557,581.46875 1654.625,581.46875 C1621.26546,581.46875 1596.97534,573.037845 1581.75391,556.175781 C1566.53248,539.313718 1558.92188,514.021002 1558.92188,480.296875 L1558.92188,332.914062 L1519,332.914062 L1519,297.640625 L1564.9375,269.75 L1589,205.21875 L1642.32031,205.21875 L1642.32031,270.296875 L1727.90625,270.296875 L1727.90625,332.914062 L1642.32031,332.914062 L1642.32031,480.296875 C1642.32031,492.145893 1645.6471,500.895805 1652.30078,506.546875 C1658.95446,512.197945 1667.74995,515.023438 1678.6875,515.023438 Z M1799.54688,576 L1799.54688,176.234375 L1884.3125,176.234375 L1884.3125,506 L2046.46094,506 L2046.46094,576 L1799.54688,576 Z M2303.49219,576 L2287.35938,534.4375 L2285.17188,534.4375 C2271.13535,552.11988 2256.68888,564.378872 2241.83203,571.214844 C2226.97519,578.050815 2207.60689,581.46875 2183.72656,581.46875 C2154.37746,581.46875 2131.27222,573.083417 2114.41016,556.3125 C2097.54809,539.541583 2089.11719,515.661613 2089.11719,484.671875 C2089.11719,452.223796 2100.46473,428.298254 2123.16016,412.894531 C2145.85558,397.490808 2180.0805,388.968758 2225.83594,387.328125 L2278.88281,385.6875 L2278.88281,372.289062 C2278.88281,341.299324 2263.0236,325.804687 2231.30469,325.804687 C2206.87748,325.804687 2178.16683,333.187426 2145.17188,347.953125 L2117.55469,291.625 C2152.73716,273.21345 2191.74718,264.007812 2234.58594,264.007812 C2275.60177,264.007812 2307.04677,272.940015 2328.92188,290.804688 C2350.79698,308.66936 2361.73438,335.830547 2361.73438,372.289062 L2361.73438,576 L2303.49219,576 Z M2278.88281,434.359375 L2246.61719,435.453125 C2222.37227,436.182295 2204.32558,440.557252 2192.47656,448.578125 C2180.62754,456.598998 2174.70312,468.812418 2174.70312,485.21875 C2174.70312,508.734493 2188.19257,520.492188 2215.17188,520.492188 C2234.49489,520.492188 2249.94395,514.932347 2261.51953,503.8125 C2273.09511,492.692653 2278.88281,477.927175 2278.88281,459.515625 L2278.88281,434.359375 Z M2664.15625,576 L2652.94531,536.898438 L2648.57031,536.898438 C2639.63798,551.117259 2626.96883,562.100222 2610.5625,569.847656 C2594.15617,577.595091 2575.47146,581.46875 2554.50781,581.46875 C2518.59617,581.46875 2491.52613,571.852961 2473.29688,552.621094 C2455.06762,533.389227 2445.95312,505.726743 2445.95312,469.632812 L2445.95312,270.296875 L2529.35156,270.296875 L2529.35156,448.851562 C2529.35156,470.908964 2533.27079,487.451768 2541.10938,498.480469 C2548.94796,509.50917 2561.43481,515.023438 2578.57031,515.023438 C2601.90376,515.023438 2618.76557,507.230547 2629.15625,491.644531 C2639.54693,476.058516 2644.74219,450.21893 2644.74219,414.125 L2644.74219,270.296875 L2728.14062,270.296875 L2728.14062,576 L2664.15625,576 Z M3097.82812,576 L3014.42969,576 L3014.42969,397.445312 C3014.42969,375.387911 3010.51046,358.845107 3002.67188,347.816406 C2994.83329,336.787705 2982.34644,331.273438 2965.21094,331.273438 C2941.87749,331.273438 2925.01568,339.066328 2914.625,354.652344 C2904.23432,370.238359 2899.03906,396.077945 2899.03906,432.171875 L2899.03906,576 L2815.64062,576 L2815.64062,270.296875 L2879.35156,270.296875 L2890.5625,309.398438 L2895.21094,309.398438 C2904.50786,294.632739 2917.31372,283.467486 2933.62891,275.902344 C2949.94409,268.337202 2968.49208,264.554688 2989.27344,264.554688 C3024.82049,264.554688 3051.79939,274.170477 3070.21094,293.402344 C3088.62249,312.634211 3097.82812,340.387839 3097.82812,376.664062 L3097.82812,576 Z M3307.82812,581.46875 C3212.6714,581.46875 3165.09375,529.24271 3165.09375,424.789062 C3165.09375,372.835678 3178.03633,333.142064 3203.92188,305.707031 C3229.80742,278.271998 3266.9034,264.554688 3315.21094,264.554688 C3350.5757,264.554688 3382.29413,271.481702 3410.36719,285.335938 L3385.75781,349.867188 C3372.63275,344.580703 3360.41933,340.251319 3349.11719,336.878906 C3337.81505,333.506494 3326.51308,331.820312 3315.21094,331.820312 C3271.8253,331.820312 3250.13281,362.627296 3250.13281,424.242188 C3250.13281,484.034153 3271.8253,513.929688 3315.21094,513.929688 C3331.25268,513.929688 3346.10931,511.787782 3359.78125,507.503906 C3373.45319,503.220031 3387.12493,496.520879 3400.79688,487.40625 L3400.79688,558.773438 C3387.30722,567.341189 3373.68106,573.265609 3359.91797,576.546875 C3346.15488,579.828141 3328.79177,581.46875 3307.82812,581.46875 Z M3753.80469,576 L3670.40625,576 L3670.40625,397.445312 C3670.40625,353.330509 3654.00016,331.273438 3621.1875,331.273438 C3597.85405,331.273438 3580.99224,339.203046 3570.60156,355.0625 C3560.21089,370.921954 3555.01562,396.624822 3555.01562,432.171875 L3555.01562,576 L3471.61719,576 L3471.61719,150.53125 L3555.01562,150.53125 L3555.01562,237.210938 C3555.01562,243.955763 3554.37761,259.814979 3553.10156,284.789062 L3551.1875,309.398438 L3555.5625,309.398438 C3574.15634,279.502455 3603.6873,264.554688 3644.15625,264.554688 C3680.06789,264.554688 3707.32022,274.216049 3725.91406,293.539062 C3744.50791,312.862076 3753.80469,340.570132 3753.80469,376.664062 L3753.80469,576 Z"/></g></g></svg>