<svg xmlns="http://www.w3.org/2000/svg" id="Laag_1" data-name="Laag 1" viewBox="0 0 535.72 122.69"><defs><style>.cls-1{fill:#129cd9}.cls-2{fill:#fff}.cls-3{fill:#16293a}.cls-4{fill:#1264ae}</style></defs><title>logo</title><path d="M198.52,360.12l-14.72,51a4.41,4.41,0,0,1-1.54,2.4,4.23,4.23,0,0,1-2.72.91H168.6a4.23,4.23,0,0,1-2.72-.91,4.39,4.39,0,0,1-1.53-2.4l-14.8-51h12.36l9.84,39.21q0.79,3.15,1.34,6.06h2q0.24-1.5,1.34-6.06l9.76-39.21h12.36Z" class="cls-1" transform="translate(-44.68 -328.05)"/><path d="M204.58,414.44V360.12q7.32-.71,20.63-0.71,11.41,0,15.63,3.7t4.21,14q0,10.32-4,14.05t-14.29,3.74a82.3,82.3,0,0,1-10.24-.63v20.16h-12Zm12-28.74H225q4.64-.08,6.34-1.81t1.69-6.77q0-5-1.69-6.77T225,368.62l-8.42.08v17Z" class="cls-1" transform="translate(-44.68 -328.05)"/><path d="M273,393.9L262,390q-6.06-2.2-8.66-6t-2.6-9.92q0-9,4.37-12t15.39-3a65.89,65.89,0,0,1,17.87,2.13l-0.79,8.19q-6.85-.24-17-0.24-4.72,0-6.3.83t-1.57,4.13a5.3,5.3,0,0,0,1.18,3.86,12,12,0,0,0,4.49,2.28l10.31,3.54q6.3,2.2,8.9,6t2.6,10q0,9.13-4.41,12.4t-15.75,3.27a87.94,87.94,0,0,1-18.66-2l0.71-8.66q16.77,0.4,18,.39,4.8,0,6.42-1t1.61-4.25A5.54,5.54,0,0,0,277,396,10,10,0,0,0,273,393.9Z" class="cls-1" transform="translate(-44.68 -328.05)"/><path d="M318.81,393.9L307.87,390q-6.06-2.2-8.66-6t-2.6-9.92q0-9,4.37-12t15.39-3a65.89,65.89,0,0,1,17.87,2.13l-0.79,8.19q-6.85-.24-17-0.24-4.72,0-6.3.83t-1.57,4.13a5.3,5.3,0,0,0,1.18,3.86,12,12,0,0,0,4.49,2.28l10.31,3.54q6.3,2.2,8.9,6t2.6,10q0,9.13-4.41,12.4t-15.75,3.27a87.94,87.94,0,0,1-18.66-2l0.71-8.66q16.77,0.4,18,.39,4.8,0,6.42-1t1.61-4.25a5.54,5.54,0,0,0-1.1-3.9A10,10,0,0,0,318.81,393.9Z" class="cls-2" transform="translate(-44.68 -328.05)"/><path d="M380.7,405.07l0.55,8.82q-7.4.79-25.19,0.79a12.33,12.33,0,0,1-8.66-3,10.53,10.53,0,0,1-3.31-8V370.83a10.53,10.53,0,0,1,3.31-8,12.34,12.34,0,0,1,8.66-3q17.79,0,25.19.79l-0.55,8.9H359.83a3.69,3.69,0,0,0-2.83.95,4.46,4.46,0,0,0-.87,3.07v8.27h21.65v8.66H356.13V401a4.6,4.6,0,0,0,.87,3.15,3.69,3.69,0,0,0,2.83.94H380.7Z" class="cls-2" transform="translate(-44.68 -328.05)"/><path d="M432.74,414.44H420.06L416,397.83a6.88,6.88,0,0,0-2.09-3.58,6.1,6.1,0,0,0-3.74-1l-8.42-.08v21.26H389.91V360.12q7.32-.71,20.71-0.71,10.94,0,15.51,3.46t4.57,12.6q0,6-2.4,9.37t-8,4.09v0.39q6.22,1.42,7.72,8.19Zm-31-30.47h8.66q4.72,0,6.46-1.61t1.73-6.1q0-4.49-1.69-6.06t-6.49-1.57l-8.66.08V384Z" class="cls-2" transform="translate(-44.68 -328.05)"/><path d="M484,360.12l-14.72,51a4.41,4.41,0,0,1-1.54,2.4,4.23,4.23,0,0,1-2.72.91H454.07a4.23,4.23,0,0,1-2.72-.91,4.39,4.39,0,0,1-1.53-2.4l-14.8-51h12.36l9.84,39.21q0.79,3.15,1.34,6.06h2q0.24-1.5,1.34-6.06l9.76-39.21H484Z" class="cls-2" transform="translate(-44.68 -328.05)"/><path d="M526.19,405.07l0.55,8.82q-7.4.79-25.19,0.79a12.33,12.33,0,0,1-8.66-3,10.53,10.53,0,0,1-3.31-8V370.83a10.53,10.53,0,0,1,3.31-8,12.34,12.34,0,0,1,8.66-3q17.79,0,25.19.79l-0.55,8.9H505.32a3.69,3.69,0,0,0-2.83.95,4.46,4.46,0,0,0-.87,3.07v8.27h21.65v8.66H501.62V401a4.6,4.6,0,0,0,.87,3.15,3.69,3.69,0,0,0,2.83.94h20.86Z" class="cls-2" transform="translate(-44.68 -328.05)"/><path d="M578.23,414.44H565.55l-4.09-16.61a6.88,6.88,0,0,0-2.09-3.58,6.1,6.1,0,0,0-3.74-1l-8.42-.08v21.26H535.4V360.12q7.32-.71,20.71-0.71,10.94,0,15.51,3.46t4.57,12.6q0,6-2.4,9.37t-8,4.09v0.39q6.22,1.42,7.72,8.19Zm-31-30.47h8.66q4.72,0,6.46-1.61t1.73-6.1q0-4.49-1.69-6.06t-6.49-1.57l-8.66.08V384Z" class="cls-2" transform="translate(-44.68 -328.05)"/><path d="M85.45,403.23h0a3.51,3.51,0,0,0-4.11,0L51.39,424.48l29.48,21.36h0a3.51,3.51,0,0,0,4.11,0l29.94-21.39Z" class="cls-3" transform="translate(-44.68 -328.05)"/><path d="M85.51,353.41a3.51,3.51,0,0,0-2.07-.71V368a3.51,3.51,0,0,1,2.07.71l25.67,18.6v8.3s-18.95-14-25.83-18.63a4,4,0,0,0-1.91-.64V392.8a3.5,3.5,0,0,1,2,.61l36.06,26.13a1.58,1.58,0,0,0,.18-0.72V379.61L85.45,353.35Z" class="cls-4" transform="translate(-44.68 -328.05)"/><path d="M121.63,356.63a3.52,3.52,0,0,0-1.45-2.78h0L85.47,328.7h0l0.07,0.05a3.51,3.51,0,0,0-2.1-.71v16.32a3.51,3.51,0,0,1,2.09.71L85.46,345h0l0.42,0.3h0l35.75,26h0V356.63h0Z" class="cls-4" transform="translate(-44.68 -328.05)"/><path d="M81.27,377h0l-3.83,2.66L44.68,403.27v15.58a1.58,1.58,0,0,0,.16.7l36.56-26.12a3.51,3.51,0,0,1,2-.63h0V376.37H83.3A3.51,3.51,0,0,0,81.27,377Z" class="cls-1" transform="translate(-44.68 -328.05)"/><path d="M83.41,344.37h0V328h0a3.51,3.51,0,0,0-2,.65h0L46.17,353.84h0a3.52,3.52,0,0,0-1.49,2.87s0,0.06,0,.08h0V395l36.68-26.3a3.51,3.51,0,0,1,2-.65h0V352.71h0a3.51,3.51,0,0,0-2,.65h0L55.13,372v-8.3l0,0,25.49-18.13h0l0.72-.51h0A3.51,3.51,0,0,1,83.41,344.37Z" class="cls-1" transform="translate(-44.68 -328.05)"/><polygon points="535.72 122.69 454.71 122.69 469.93 96.49 535.72 96.49 535.72 122.69" class="cls-4"/><path d="M517,443a2,2,0,0,1,.15-0.77,1.83,1.83,0,0,1,.42-0.62,2,2,0,0,1,.63-0.42A2,2,0,0,1,519,441a1.93,1.93,0,0,1,.77.16,1.91,1.91,0,0,1,1,1,2,2,0,0,1,0,1.54,2,2,0,0,1-.42.62,1.88,1.88,0,0,1-.62.41,2,2,0,0,1-.77.15,2,2,0,0,1-.78-0.15,2,2,0,0,1-.63-0.41,1.84,1.84,0,0,1-.42-0.62A2,2,0,0,1,517,443Z" class="cls-2" transform="translate(-44.68 -328.05)"/><path d="M533,434.23a1.6,1.6,0,0,1-.28.29,0.64,0.64,0,0,1-.4.1,0.88,0.88,0,0,1-.48-0.15l-0.56-.34a4.19,4.19,0,0,0-.77-0.34,3.55,3.55,0,0,0-1.11-.15,3.39,3.39,0,0,0-1.48.31,2.8,2.8,0,0,0-1.06.88,4,4,0,0,0-.63,1.38A7.41,7.41,0,0,0,526,438a7.19,7.19,0,0,0,.23,1.89,4,4,0,0,0,.66,1.4,2.82,2.82,0,0,0,1,.86,3.14,3.14,0,0,0,1.38.29,3.41,3.41,0,0,0,1.24-.19,3.91,3.91,0,0,0,.8-0.42l0.56-.42a0.85,0.85,0,0,1,.54-0.19,0.65,0.65,0,0,1,.58.3l0.92,1.17a5.8,5.8,0,0,1-1.16,1,6.25,6.25,0,0,1-1.29.68,6.56,6.56,0,0,1-1.38.36,9.83,9.83,0,0,1-1.41.1,5.91,5.91,0,0,1-2.32-.46,5.42,5.42,0,0,1-1.9-1.34,6.47,6.47,0,0,1-1.28-2.16,8.35,8.35,0,0,1-.47-2.91,8.47,8.47,0,0,1,.42-2.72,6.16,6.16,0,0,1,1.24-2.17,5.69,5.69,0,0,1,2-1.43,7,7,0,0,1,2.78-.52,6.61,6.61,0,0,1,2.62.48,6.39,6.39,0,0,1,2,1.38Z" class="cls-2" transform="translate(-44.68 -328.05)"/><path d="M541.71,431.2a7.3,7.3,0,0,1,2.71.48,5.84,5.84,0,0,1,2.07,1.36,6,6,0,0,1,1.32,2.15,8.92,8.92,0,0,1,0,5.7,6.16,6.16,0,0,1-1.32,2.17,5.75,5.75,0,0,1-2.07,1.38,7.88,7.88,0,0,1-5.42,0,5.8,5.8,0,0,1-2.08-1.38,6.19,6.19,0,0,1-1.34-2.17,8.8,8.8,0,0,1,0-5.7,6.06,6.06,0,0,1,1.34-2.15,5.89,5.89,0,0,1,2.08-1.36A7.35,7.35,0,0,1,541.71,431.2Zm0,11.25a2.82,2.82,0,0,0,2.46-1.12,5.6,5.6,0,0,0,.8-3.27,5.66,5.66,0,0,0-.8-3.28,2.81,2.81,0,0,0-2.46-1.13,2.85,2.85,0,0,0-2.49,1.14,5.63,5.63,0,0,0-.8,3.28,5.57,5.57,0,0,0,.8,3.26A2.86,2.86,0,0,0,541.71,442.46Z" class="cls-2" transform="translate(-44.68 -328.05)"/><path d="M550.78,444.73V431.41h2a0.79,0.79,0,0,1,.82.58l0.21,1a7.6,7.6,0,0,1,.73-0.71,4.72,4.72,0,0,1,.82-0.56,4.44,4.44,0,0,1,.93-0.37,4.16,4.16,0,0,1,1.1-.14,3.11,3.11,0,0,1,2.07.68,4.1,4.1,0,0,1,1.21,1.81,4.07,4.07,0,0,1,.78-1.14,4.26,4.26,0,0,1,1-.77,4.73,4.73,0,0,1,1.19-.44,5.71,5.71,0,0,1,1.27-.14,5.32,5.32,0,0,1,2,.34,3.76,3.76,0,0,1,1.44,1,4.35,4.35,0,0,1,.89,1.58,6.9,6.9,0,0,1,.3,2.14v8.48h-3.21v-8.48a2.85,2.85,0,0,0-.56-1.91,2,2,0,0,0-1.64-.64,2.44,2.44,0,0,0-.92.17,2.18,2.18,0,0,0-.74.49,2.22,2.22,0,0,0-.5.8,3.1,3.1,0,0,0-.18,1.1v8.48h-3.22v-8.48a2.9,2.9,0,0,0-.54-1.95,2,2,0,0,0-1.59-.61,2.57,2.57,0,0,0-1.29.34A4.35,4.35,0,0,0,554,435v9.75h-3.21Z" class="cls-2" transform="translate(-44.68 -328.05)"/></svg>